<?xml version="1.0" encoding="UTF-8" standalone="no"?>
<!DOCTYPE svg PUBLIC "-//W3C//DTD SVG 1.1//EN"
 "http://www.w3.org/Graphics/SVG/1.1/DTD/svg11.dtd">
<!-- Generated by graphviz version 12.2.1 (20241206.2353)
 -->
<!-- Title: G Pages: 1 -->
<svg width="1058pt" height="1063pt"
 viewBox="0.00 0.00 1057.51 1063.33" xmlns="http://www.w3.org/2000/svg" xmlns:xlink="http://www.w3.org/1999/xlink">
<g id="graph0" class="graph" transform="scale(1 1) rotate(0) translate(4 1059.33)">
<title>G</title>
<polygon fill="white" stroke="none" points="-4,4 -4,-1059.33 1053.51,-1059.33 1053.51,4 -4,4"/>
<!-- node0002&#45;&gt;node0018 -->
<g id="edge1" class="edge">
<title>node0002&#45;&gt;node0018</title>
<path fill="none" stroke="#ff7f0e" stroke-width="2" d="M93.96,-527.28C181.4,-522.83 368.49,-513.29 464.88,-508.37"/>
<polygon fill="#ff7f0e" stroke="#ff7f0e" stroke-width="2" points="465.03,-511.87 474.84,-507.87 464.67,-504.88 465.03,-511.87"/>
<text text-anchor="middle" x="248.3" y="-521.33" font-family="Times New Roman,serif" font-size="20.00">R48517</text>
</g>
<!-- node0003&#45;&gt;node0018 -->
<g id="edge2" class="edge">
<title>node0003&#45;&gt;node0018</title>
<path fill="none" stroke="#ff7f0e" stroke-width="2" d="M364.41,-613.99C396.14,-592.52 441.14,-562.07 475.44,-538.86"/>
<polygon fill="#ff7f0e" stroke="#ff7f0e" stroke-width="2" points="477.34,-541.8 483.66,-533.3 473.42,-536 477.34,-541.8"/>
<text text-anchor="middle" x="388.8" y="-557.43" font-family="Times New Roman,serif" font-size="20.00">R48517</text>
</g>
<!-- node0004&#45;&gt;node0018 -->
<g id="edge3" class="edge">
<title>node0004&#45;&gt;node0018</title>
<path fill="none" stroke="#ff7f0e" stroke-width="2" d="M686.52,-365.76C653.95,-393.9 605.67,-435.62 570.39,-466.11"/>
<polygon fill="#ff7f0e" stroke="#ff7f0e" stroke-width="2" points="568.37,-463.22 563.09,-472.41 572.95,-468.52 568.37,-463.22"/>
<text text-anchor="middle" x="597.33" y="-419.43" font-family="Times New Roman,serif" font-size="20.00">R48517</text>
</g>
<!-- node0005&#45;&gt;node0018 -->
<g id="edge4" class="edge">
<title>node0005&#45;&gt;node0018</title>
<path fill="none" stroke="#ff7f0e" stroke-width="2" d="M908.77,-299.79C830.93,-341.48 663.32,-431.24 577.7,-477.1"/>
<polygon fill="#ff7f0e" stroke="#ff7f0e" stroke-width="2" points="576.26,-473.9 569.1,-481.7 579.57,-480.07 576.26,-473.9"/>
<text text-anchor="middle" x="712.11" y="-391.94" font-family="Times New Roman,serif" font-size="20.00">R48517</text>
</g>
<!-- node0006&#45;&gt;node0018 -->
<g id="edge5" class="edge">
<title>node0006&#45;&gt;node0018</title>
<path fill="none" stroke="#ff7f0e" stroke-width="2" d="M782.89,-126.27C730.98,-202.57 615.97,-371.62 558.74,-455.75"/>
<polygon fill="#ff7f0e" stroke="#ff7f0e" stroke-width="2" points="555.99,-453.57 553.26,-463.8 561.78,-457.51 555.99,-453.57"/>
<text text-anchor="middle" x="639.69" y="-294.51" font-family="Times New Roman,serif" font-size="20.00">R48517</text>
</g>
<!-- node0007&#45;&gt;node0018 -->
<g id="edge6" class="edge">
<title>node0007&#45;&gt;node0018</title>
<path fill="none" stroke="#ff7f0e" stroke-width="2" d="M589.18,-126.11C576.02,-203.87 549.53,-360.47 535.04,-446.09"/>
<polygon fill="#ff7f0e" stroke="#ff7f0e" stroke-width="2" points="531.63,-445.26 533.41,-455.71 538.53,-446.43 531.63,-445.26"/>
<text text-anchor="middle" x="530.99" y="-289.6" font-family="Times New Roman,serif" font-size="20.00">R48517</text>
</g>
<!-- node0008&#45;&gt;node0018 -->
<g id="edge7" class="edge">
<title>node0008&#45;&gt;node0018</title>
<path fill="none" stroke="#ff7f0e" stroke-width="2" d="M407.03,-92.02C430.96,-175.85 482.18,-355.23 508.56,-447.65"/>
<polygon fill="#ff7f0e" stroke="#ff7f0e" stroke-width="2" points="505.17,-448.53 511.28,-457.18 511.9,-446.6 505.17,-448.53"/>
<text text-anchor="middle" x="488.92" y="-250.83" font-family="Times New Roman,serif" font-size="20.00">R48517</text>
</g>
<!-- node0009&#45;&gt;node0018 -->
<g id="edge8" class="edge">
<title>node0009&#45;&gt;node0018</title>
<path fill="none" stroke="#ff7f0e" stroke-width="2" d="M166.08,-362.1C239.78,-391.5 388.31,-450.76 469.28,-483.07"/>
<polygon fill="#ff7f0e" stroke="#ff7f0e" stroke-width="2" points="467.8,-486.25 478.39,-486.7 470.4,-479.75 467.8,-486.25"/>
<text text-anchor="middle" x="286.56" y="-426.08" font-family="Times New Roman,serif" font-size="20.00">R48517</text>
</g>
<!-- node0010&#45;&gt;node0018 -->
<g id="edge9" class="edge">
<title>node0010&#45;&gt;node0018</title>
<path fill="none" stroke="#ff7f0e" stroke-width="2" d="M407.49,-339.25C431.05,-372.53 465.22,-420.82 490.66,-456.76"/>
<polygon fill="#ff7f0e" stroke="#ff7f0e" stroke-width="2" points="487.53,-458.4 496.17,-464.54 493.25,-454.36 487.53,-458.4"/>
<text text-anchor="middle" x="417.95" y="-401.5" font-family="Times New Roman,serif" font-size="20.00">R48517</text>
</g>
<!-- node0011&#45;&gt;node0018 -->
<g id="edge10" class="edge">
<title>node0011&#45;&gt;node0018</title>
<path fill="none" stroke="#ff7f0e" stroke-width="2" d="M210.99,-170.46C274.27,-237.93 414.54,-387.51 484.17,-461.75"/>
<polygon fill="#ff7f0e" stroke="#ff7f0e" stroke-width="2" points="481.24,-463.75 490.64,-468.65 486.35,-458.96 481.24,-463.75"/>
<text text-anchor="middle" x="316.46" y="-319.61" font-family="Times New Roman,serif" font-size="20.00">R48517</text>
</g>
<!-- node0012&#45;&gt;node0018 -->
<g id="edge11" class="edge">
<title>node0012&#45;&gt;node0018</title>
<path fill="none" stroke="#ff7f0e" stroke-width="2" d="M955.6,-506.99C868.26,-506.65 681.38,-505.92 585.1,-505.54"/>
<polygon fill="#ff7f0e" stroke="#ff7f0e" stroke-width="2" points="585.17,-502.04 575.16,-505.5 585.14,-509.04 585.17,-502.04"/>
<text text-anchor="middle" x="739.22" y="-509.77" font-family="Times New Roman,serif" font-size="20.00">R48517</text>
</g>
<!-- node0013&#45;&gt;node0018 -->
<g id="edge12" class="edge">
<title>node0013&#45;&gt;node0018</title>
<path fill="none" stroke="#ff7f0e" stroke-width="2" d="M926.1,-730.15C845.26,-684.83 666.03,-584.36 577.12,-534.52"/>
<polygon fill="#ff7f0e" stroke="#ff7f0e" stroke-width="2" points="579.04,-531.58 568.61,-529.74 575.62,-537.69 579.04,-531.58"/>
<text text-anchor="middle" x="720.49" y="-635.83" font-family="Times New Roman,serif" font-size="20.00">R48517</text>
</g>
<!-- node0014&#45;&gt;node0018 -->
<g id="edge13" class="edge">
<title>node0014&#45;&gt;node0018</title>
<path fill="none" stroke="#ff7f0e" stroke-width="2" d="M717.27,-592.61C678.61,-575.05 621.55,-549.14 579.64,-530.11"/>
<polygon fill="#ff7f0e" stroke="#ff7f0e" stroke-width="2" points="581.28,-527.01 570.73,-526.06 578.39,-533.38 581.28,-527.01"/>
<text text-anchor="middle" x="617.33" y="-564.86" font-family="Times New Roman,serif" font-size="20.00">R48517</text>
</g>
<!-- node0015&#45;&gt;node0018 -->
<g id="edge14" class="edge">
<title>node0015&#45;&gt;node0018</title>
<path fill="none" stroke="#ff7f0e" stroke-width="2" d="M729.95,-804.93C687.68,-743.12 605.13,-622.44 558.74,-554.61"/>
<polygon fill="#ff7f0e" stroke="#ff7f0e" stroke-width="2" points="561.87,-552.98 553.33,-546.7 556.09,-556.93 561.87,-552.98"/>
<text text-anchor="middle" x="613.22" y="-683.27" font-family="Times New Roman,serif" font-size="20.00">R48517</text>
</g>
<!-- node0016&#45;&gt;node0018 -->
<g id="edge15" class="edge">
<title>node0016&#45;&gt;node0018</title>
<path fill="none" stroke="#ff7f0e" stroke-width="2" d="M460.54,-876.5C473.78,-800.25 500.18,-648.31 514.76,-564.4"/>
<polygon fill="#ff7f0e" stroke="#ff7f0e" stroke-width="2" points="518.17,-565.22 516.43,-554.77 511.27,-564.02 518.17,-565.22"/>
<text text-anchor="middle" x="456.52" y="-723.95" font-family="Times New Roman,serif" font-size="20.00">R48517</text>
</g>
<!-- node0017&#45;&gt;node0018 -->
<g id="edge16" class="edge">
<title>node0017&#45;&gt;node0018</title>
<path fill="none" stroke="#ff7f0e" stroke-width="2" d="M627.28,-962.54C606.77,-870.84 560.82,-665.39 538.17,-564.08"/>
<polygon fill="#ff7f0e" stroke="#ff7f0e" stroke-width="2" points="541.58,-563.32 535.98,-554.33 534.75,-564.85 541.58,-563.32"/>
<text text-anchor="middle" x="551.6" y="-766.81" font-family="Times New Roman,serif" font-size="20.00">R48517</text>
</g>
<!-- node0018&#45;&gt;node0000 -->
<g id="edge17" class="edge">
<title>node0018&#45;&gt;node0000</title>
<path fill="none" stroke="#1f77b4" stroke-width="2" d="M497.34,-543.39C448.3,-610.83 346.27,-751.15 292.23,-825.47"/>
<polygon fill="#1f77b4" stroke="#1f77b4" stroke-width="2" points="289.45,-823.34 286.4,-833.49 295.11,-827.46 289.45,-823.34"/>
<text text-anchor="middle" x="406.41" y="-687.93" font-family="Times New Roman,serif" font-size="20.00">R4</text>
</g>
<!-- node0018&#45;&gt;node0001 -->
<g id="edge18" class="edge">
<title>node0018&#45;&gt;node0001</title>
<path fill="none" stroke="#2ca02c" stroke-width="2" d="M483.71,-527.83C403.61,-571.49 227.3,-667.59 138.78,-715.84"/>
<polygon fill="#2ca02c" stroke="#2ca02c" stroke-width="2" points="137.17,-712.74 130.07,-720.59 140.52,-718.88 137.17,-712.74"/>
<text text-anchor="middle" x="294.75" y="-602.84" font-family="Times New Roman,serif" font-size="20.00">R30</text>
</g>
<!-- node0000 -->
<g id="node1" class="node">
<title>node0000</title>
<ellipse fill="#eeeeee" fill-opacity="0.866667" stroke="black" cx="256.88" cy="-874.08" rx="46.8" ry="46.8"/>
<text text-anchor="middle" x="256.88" y="-888.83" font-family="Times New Roman,serif" font-size="20.00"><a href="">I6205</a></text>
<text text-anchor="middle" x="256.88" y="-866.33" font-family="Times New Roman,serif" font-size="20.00"><a href="">[chemical</a></text>
<text text-anchor="middle" x="256.88" y="-843.83" font-family="Times New Roman,serif" font-size="20.00"><a href="">element]</a></text>
</g>
<!-- node0001 -->
<g id="node2" class="node">
<title>node0001</title>
<ellipse fill="#eeeeee" fill-opacity="0.866667" stroke="black" cx="85.88" cy="-744.68" rx="46.8" ry="46.8"/>
<text text-anchor="middle" x="85.88" y="-748.18" font-family="Times New Roman,serif" font-size="20.00"><a href="">I6001</a></text>
<text text-anchor="middle" x="85.88" y="-725.68" font-family="Times New Roman,serif" font-size="20.00"><a href="">[metal]</a></text>
</g>
<!-- node0002 -->
<g id="node3" class="node">
<title>node0002</title>
<ellipse fill="#eeeeee" fill-opacity="0.866667" stroke="black" cx="46.8" cy="-529.69" rx="46.8" ry="46.8"/>
<text text-anchor="middle" x="46.8" y="-533.19" font-family="Times New Roman,serif" font-size="20.00"><a href="">I95705</a></text>
<text text-anchor="middle" x="46.8" y="-510.69" font-family="Times New Roman,serif" font-size="20.00"><a href="">[W/VOx/Pt]</a></text>
</g>
<!-- node0003 -->
<g id="node4" class="node">
<title>node0003</title>
<ellipse fill="#eeeeee" fill-opacity="0.866667" stroke="black" cx="325.46" cy="-640.35" rx="46.8" ry="46.8"/>
<text text-anchor="middle" x="325.46" y="-655.1" font-family="Times New Roman,serif" font-size="20.00"><a href="">I41069</a></text>
<text text-anchor="middle" x="325.46" y="-632.6" font-family="Times New Roman,serif" font-size="20.00"><a href="">[Pt/Ta/Ta2O5</a></text>
<text text-anchor="middle" x="325.46" y="-610.1" font-family="Times New Roman,serif" font-size="20.00"><a href="">/Pt/Ti]</a></text>
</g>
<!-- node0004 -->
<g id="node5" class="node">
<title>node0004</title>
<ellipse fill="#eeeeee" fill-opacity="0.866667" stroke="black" cx="722.24" cy="-334.9" rx="46.8" ry="46.8"/>
<text text-anchor="middle" x="722.24" y="-349.65" font-family="Times New Roman,serif" font-size="20.00"><a href="">I58468</a></text>
<text text-anchor="middle" x="722.24" y="-327.15" font-family="Times New Roman,serif" font-size="20.00"><a href="">[Pt/TiO2/TiN</a></text>
<text text-anchor="middle" x="722.24" y="-304.65" font-family="Times New Roman,serif" font-size="20.00"><a href="">]</a></text>
</g>
<!-- node0005 -->
<g id="node6" class="node">
<title>node0005</title>
<ellipse fill="#eeeeee" fill-opacity="0.866667" stroke="black" cx="950.32" cy="-277.54" rx="46.8" ry="46.8"/>
<text text-anchor="middle" x="950.32" y="-281.04" font-family="Times New Roman,serif" font-size="20.00"><a href="">I5868</a></text>
<text text-anchor="middle" x="950.32" y="-258.54" font-family="Times New Roman,serif" font-size="20.00"><a href="">[Ta/TaOx/Pt]</a></text>
</g>
<!-- node0006 -->
<g id="node7" class="node">
<title>node0006</title>
<ellipse fill="#eeeeee" fill-opacity="0.866667" stroke="black" cx="809.38" cy="-87.32" rx="46.8" ry="46.8"/>
<text text-anchor="middle" x="809.38" y="-90.82" font-family="Times New Roman,serif" font-size="20.00"><a href="">I26347</a></text>
<text text-anchor="middle" x="809.38" y="-68.32" font-family="Times New Roman,serif" font-size="20.00"><a href="">[Pt/VO2/Pt]</a></text>
</g>
<!-- node0007 -->
<g id="node8" class="node">
<title>node0007</title>
<ellipse fill="#eeeeee" fill-opacity="0.866667" stroke="black" cx="597.02" cy="-79.76" rx="46.8" ry="46.8"/>
<text text-anchor="middle" x="597.02" y="-83.26" font-family="Times New Roman,serif" font-size="20.00"><a href="">I79564</a></text>
<text text-anchor="middle" x="597.02" y="-60.76" font-family="Times New Roman,serif" font-size="20.00"><a href="">[Pt/TaOx/Pt]</a></text>
</g>
<!-- node0008 -->
<g id="node9" class="node">
<title>node0008</title>
<ellipse fill="#eeeeee" fill-opacity="0.866667" stroke="black" cx="394.12" cy="-46.8" rx="46.8" ry="46.8"/>
<text text-anchor="middle" x="394.12" y="-61.55" font-family="Times New Roman,serif" font-size="20.00"><a href="">I63066</a></text>
<text text-anchor="middle" x="394.12" y="-39.05" font-family="Times New Roman,serif" font-size="20.00"><a href="">[Pt/Ag:</a></text>
<text text-anchor="middle" x="394.12" y="-16.55" font-family="Times New Roman,serif" font-size="20.00"><a href="">SiOxNy/Pt]</a></text>
</g>
<!-- node0009 -->
<g id="node10" class="node">
<title>node0009</title>
<ellipse fill="#eeeeee" fill-opacity="0.866667" stroke="black" cx="122.2" cy="-344.59" rx="46.8" ry="46.8"/>
<text text-anchor="middle" x="122.2" y="-359.34" font-family="Times New Roman,serif" font-size="20.00"><a href="">I37167</a></text>
<text text-anchor="middle" x="122.2" y="-336.84" font-family="Times New Roman,serif" font-size="20.00"><a href="">[Pt/SiOxAg/P</a></text>
<text text-anchor="middle" x="122.2" y="-314.34" font-family="Times New Roman,serif" font-size="20.00"><a href="">t/Ti]</a></text>
</g>
<!-- node0010 -->
<g id="node11" class="node">
<title>node0010</title>
<ellipse fill="#eeeeee" fill-opacity="0.866667" stroke="black" cx="380.26" cy="-300.78" rx="46.8" ry="46.8"/>
<text text-anchor="middle" x="380.26" y="-315.53" font-family="Times New Roman,serif" font-size="20.00"><a href="">I12287</a></text>
<text text-anchor="middle" x="380.26" y="-293.03" font-family="Times New Roman,serif" font-size="20.00"><a href="">[Ta/Pd/HfO2/</a></text>
<text text-anchor="middle" x="380.26" y="-270.53" font-family="Times New Roman,serif" font-size="20.00"><a href="">Pt/Ti]</a></text>
</g>
<!-- node0011 -->
<g id="node12" class="node">
<title>node0011</title>
<ellipse fill="#eeeeee" fill-opacity="0.866667" stroke="black" cx="178.72" cy="-136.05" rx="46.8" ry="46.8"/>
<text text-anchor="middle" x="178.72" y="-139.55" font-family="Times New Roman,serif" font-size="20.00"><a href="">I60665</a></text>
<text text-anchor="middle" x="178.72" y="-117.05" font-family="Times New Roman,serif" font-size="20.00"><a href="">[Ti/ZrO2/Pt]</a></text>
</g>
<!-- node0012 -->
<g id="node13" class="node">
<title>node0012</title>
<ellipse fill="#eeeeee" fill-opacity="0.866667" stroke="black" cx="1002.71" cy="-507.17" rx="46.8" ry="46.8"/>
<text text-anchor="middle" x="1002.71" y="-521.92" font-family="Times New Roman,serif" font-size="20.00"><a href="">I88802</a></text>
<text text-anchor="middle" x="1002.71" y="-499.42" font-family="Times New Roman,serif" font-size="20.00"><a href="">[Pt/Ta2O5-</a></text>
<text text-anchor="middle" x="1002.71" y="-476.92" font-family="Times New Roman,serif" font-size="20.00"><a href="">x/TaO2-x/Pt]</a></text>
</g>
<!-- node0013 -->
<g id="node14" class="node">
<title>node0013</title>
<ellipse fill="#eeeeee" fill-opacity="0.866667" stroke="black" cx="967.31" cy="-753.25" rx="46.8" ry="46.8"/>
<text text-anchor="middle" x="967.31" y="-756.75" font-family="Times New Roman,serif" font-size="20.00"><a href="">I37074</a></text>
<text text-anchor="middle" x="967.31" y="-734.25" font-family="Times New Roman,serif" font-size="20.00"><a href="">[Pt/TaOx/Ta]</a></text>
</g>
<!-- node0014 -->
<g id="node15" class="node">
<title>node0014</title>
<ellipse fill="#eeeeee" fill-opacity="0.866667" stroke="black" cx="760.12" cy="-612.06" rx="46.8" ry="46.8"/>
<text text-anchor="middle" x="760.12" y="-626.81" font-family="Times New Roman,serif" font-size="20.00"><a href="">I10778</a></text>
<text text-anchor="middle" x="760.12" y="-604.31" font-family="Times New Roman,serif" font-size="20.00"><a href="">[Pt/Gd2O3/Pt</a></text>
<text text-anchor="middle" x="760.12" y="-581.81" font-family="Times New Roman,serif" font-size="20.00"><a href="">]</a></text>
</g>
<!-- node0015 -->
<g id="node16" class="node">
<title>node0015</title>
<ellipse fill="#eeeeee" fill-opacity="0.866667" stroke="black" cx="756.51" cy="-843.75" rx="46.8" ry="46.8"/>
<text text-anchor="middle" x="756.51" y="-858.5" font-family="Times New Roman,serif" font-size="20.00"><a href="">I58157</a></text>
<text text-anchor="middle" x="756.51" y="-836" font-family="Times New Roman,serif" font-size="20.00"><a href="">[Pt/TaOx/TiO</a></text>
<text text-anchor="middle" x="756.51" y="-813.5" font-family="Times New Roman,serif" font-size="20.00"><a href="">2/TaOx/Pt]</a></text>
</g>
<!-- node0016 -->
<g id="node17" class="node">
<title>node0016</title>
<ellipse fill="#eeeeee" fill-opacity="0.866667" stroke="black" cx="452.5" cy="-922.77" rx="46.8" ry="46.8"/>
<text text-anchor="middle" x="452.5" y="-948.77" font-family="Times New Roman,serif" font-size="20.00"><a href="">I27966</a></text>
<text text-anchor="middle" x="452.5" y="-926.27" font-family="Times New Roman,serif" font-size="20.00"><a href="">[Pt/TaN1+x/T</a></text>
<text text-anchor="middle" x="452.5" y="-903.77" font-family="Times New Roman,serif" font-size="20.00"><a href="">a2O5/TaN1+x/</a></text>
<text text-anchor="middle" x="452.5" y="-881.27" font-family="Times New Roman,serif" font-size="20.00"><a href="">Pt]</a></text>
</g>
<!-- node0017 -->
<g id="node18" class="node">
<title>node0017</title>
<ellipse fill="#eeeeee" fill-opacity="0.866667" stroke="black" cx="637.56" cy="-1008.53" rx="46.8" ry="46.8"/>
<text text-anchor="middle" x="637.56" y="-1034.53" font-family="Times New Roman,serif" font-size="20.00"><a href="">I48946</a></text>
<text text-anchor="middle" x="637.56" y="-1012.03" font-family="Times New Roman,serif" font-size="20.00"><a href="">[Pt/Al2O3/Hf</a></text>
<text text-anchor="middle" x="637.56" y="-989.53" font-family="Times New Roman,serif" font-size="20.00"><a href="">O2/Al2O3/TiN</a></text>
<text text-anchor="middle" x="637.56" y="-967.03" font-family="Times New Roman,serif" font-size="20.00"><a href="">/Si]</a></text>
</g>
<!-- node0018 -->
<g id="node19" class="node">
<title>node0018</title>
<ellipse fill="#eeeeee" fill-opacity="0.866667" stroke="black" cx="525.02" cy="-505.31" rx="46.8" ry="46.8"/>
<text text-anchor="middle" x="525.02" y="-497.56" font-family="Times New Roman,serif" font-size="20.00"><a href="">I6109[Pt]</a></text>
</g>
</g>
</svg>
